<svg width="114" height="120" viewBox="0 0 114 120" fill="none" xmlns="http://www.w3.org/2000/svg">
<path d="M19.99 118.09C16.34 118.09 13.18 115.49 12.46 111.91C11.92 109.24 12.86 106.46 14.91 104.64C14.97 104.59 15.02 104.54 15.07 104.48C15.12 104.45 15.18 104.41 15.21 104.38C15.27 104.35 15.25 104.36 15.3 104.32C15.54 104.13 15.8 103.96 16.07 103.8C16.12 103.77 16.18 103.73 16.23 103.69C18.93 101.57 20.92 98.02 21.71 93.92C21.74 93.83 21.76 93.74 21.78 93.65C22.25 90.44 24.7 87.86 27.87 87.23C28.37 87.13 28.89 87.08 29.39 87.08C32.21 87.08 34.8 88.63 36.15 91.12C36.17 91.16 36.19 91.19 36.21 91.22C38.84 95.27 42.01 97.57 45.64 98.06C45.66 98.06 45.67 98.06 45.67 98.06C45.73 98.08 45.79 98.1 45.85 98.11C48.76 98.81 51.01 101.15 51.6 104.07C52.43 108.23 49.73 112.29 45.57 113.13C45.03 113.24 44.47 113.29 43.88 113.29C42.11 113.29 40.35 112.81 38.64 112.35C37.04 111.92 35.52 111.51 34.07 111.51C33.61 111.51 33.18 111.55 32.77 111.63C30.9 112.01 29.16 113.31 27.32 114.69C26.29 115.46 25.23 116.26 24.15 116.89C23.3 117.42 22.44 117.76 21.54 117.94C21.01 118.04 20.5 118.09 19.99 118.09ZM9.28999 100.27C6.81999 100.27 3.92999 97.39 2.58999 93.57C1.01999 89.12 1.86999 84.58 4.43999 83.67C4.73999 83.56 5.05999 83.51 5.38999 83.51C7.85999 83.51 10.74 86.39 12.09 90.21C13.66 94.67 12.82 99.2 10.24 100.11C9.92999 100.22 9.61999 100.27 9.28999 100.27ZM50.94 91.92C48.29 91.92 45.83 88.06 45.57 83.5C45.3 78.78 47.38 74.67 50.11 74.51H50.26C52.91 74.51 55.37 78.37 55.63 82.93C55.9 87.65 53.82 91.76 51.09 91.92H50.94ZM17.21 83.68C14.74 83.68 11.85 80.8 10.51 76.98C8.93999 72.53 9.77999 67.99 12.36 67.08C12.66 66.97 12.98 66.92 13.31 66.92C15.78 66.92 18.66 69.8 20.01 73.62C21.58 78.07 20.74 82.61 18.16 83.52C17.86 83.63 17.54 83.68 17.21 83.68ZM34.83 80.15C32.18 80.15 29.72 76.29 29.46 71.73C29.19 67.01 31.27 62.9 34 62.74H34.15C36.8 62.74 39.26 66.6 39.52 71.16C39.79 75.88 37.71 79.99 34.98 80.15H34.83Z" fill="#EF1F6A"/>
<path d="M34.15 64.24C35.57 64.24 37.78 66.97 38.02 71.24C38.27 75.64 36.34 78.57 34.9 78.65H34.83C33.41 78.65 31.2 75.92 30.96 71.64C30.71 67.24 32.64 64.32 34.08 64.23L34.15 64.24ZM13.31 68.43C14.89 68.43 17.36 70.61 18.6 74.13C20.07 78.28 19.03 81.63 17.67 82.11C17.53 82.16 17.38 82.18 17.22 82.18C15.64 82.18 13.17 80 11.93 76.48C10.46 72.33 11.5 68.98 12.86 68.5C13 68.45 13.14 68.43 13.31 68.43ZM50.26 76.01C51.68 76.01 53.89 78.74 54.13 83.02C54.38 87.42 52.45 90.34 51.01 90.42H50.94C49.52 90.42 47.31 87.69 47.07 83.41C46.82 79.01 48.75 76.09 50.19 76L50.26 76.01ZM5.38 85.02C6.96 85.02 9.43 87.2 10.67 90.72C12.14 94.87 11.09 98.22 9.74 98.7C9.6 98.75 9.45 98.77 9.29 98.77C7.71 98.77 5.24 96.59 4 93.07C2.53 88.92 3.58 85.57 4.93 85.09C5.07 85.04 5.22 85.02 5.38 85.02ZM29.38 88.57C31.65 88.57 33.74 89.81 34.82 91.82C34.88 91.92 34.94 92.02 35 92.12C38.51 97.48 42.51 99.11 45.31 99.52C45.37 99.54 45.42 99.55 45.48 99.57C47.82 100.13 49.64 102.01 50.11 104.36C50.78 107.71 48.6 110.98 45.26 111.65C44.82 111.74 44.36 111.78 43.86 111.78C42.29 111.78 40.62 111.33 39.01 110.89C37.38 110.45 35.7 110 34.05 110C33.5 110 32.96 110.05 32.46 110.15C30.25 110.59 28.3 112.06 26.41 113.48C25.42 114.23 24.39 115 23.39 115.57C23.36 115.59 23.32 115.61 23.29 115.63C22.65 116.03 21.95 116.31 21.23 116.46C20.82 116.54 20.41 116.58 20 116.58C17.07 116.58 14.52 114.49 13.94 111.6C13.51 109.45 14.27 107.21 15.91 105.75C15.96 105.71 16.01 105.66 16.05 105.61C16.11 105.57 16.17 105.53 16.22 105.49C16.41 105.34 16.62 105.2 16.84 105.07C16.95 105.01 17.05 104.93 17.15 104.86C20.11 102.54 22.28 98.7 23.15 94.29C23.19 94.15 23.23 94 23.25 93.85C23.63 91.27 25.6 89.19 28.15 88.68C28.56 88.61 28.97 88.57 29.38 88.57ZM34.15 61.24C34.07 61.24 33.99 61.24 33.91 61.25C30.31 61.45 27.64 66.19 27.96 71.82C28.27 77.32 31.32 81.66 34.82 81.66C34.9 81.66 34.98 81.66 35.06 81.65C38.66 81.45 41.33 76.71 41.01 71.08C40.7 65.57 37.66 61.24 34.15 61.24ZM13.31 65.43C12.82 65.43 12.33 65.51 11.86 65.67C8.46 66.87 7.22 72.16 9.1 77.48C10.72 82.07 14.13 85.18 17.22 85.18C17.71 85.18 18.2 85.1 18.67 84.94C22.07 83.74 23.31 78.45 21.43 73.13C19.8 68.54 16.4 65.43 13.31 65.43ZM50.26 73.01C50.18 73.01 50.1 73.01 50.02 73.02C46.42 73.22 43.75 77.96 44.07 83.59C44.38 89.1 47.43 93.43 50.94 93.43C51.02 93.43 51.1 93.43 51.18 93.42C54.78 93.21 57.45 88.48 57.13 82.85C56.81 77.34 53.77 73.01 50.26 73.01ZM5.38 82.02C4.89 82.02 4.4 82.1 3.93 82.26C0.529999 83.46 -0.710001 88.75 1.17 94.07C2.79 98.66 6.2 101.77 9.29 101.77C9.78 101.77 10.27 101.69 10.74 101.53C14.15 100.33 15.38 95.04 13.51 89.72C11.88 85.13 8.47 82.02 5.38 82.02ZM29.38 85.57C28.78 85.57 28.17 85.63 27.56 85.75C23.65 86.53 20.83 89.69 20.28 93.43H20.26C19.52 97.53 17.57 100.73 15.29 102.51C14.97 102.7 14.66 102.91 14.37 103.14C14.33 103.16 14.3 103.19 14.26 103.21C14.08 103.32 13.96 103.42 13.9 103.52C11.53 105.62 10.31 108.88 10.98 112.2C11.86 116.57 15.69 119.59 19.98 119.59C20.58 119.59 21.19 119.53 21.8 119.41C22.92 119.19 23.95 118.76 24.86 118.18C27.88 116.44 30.53 113.59 33.03 113.09C33.35 113.03 33.68 113 34.03 113C36.75 113 40.17 114.78 43.84 114.78C44.5 114.78 45.16 114.72 45.83 114.59C50.81 113.59 54.03 108.75 53.04 103.77C52.31 100.15 49.54 97.46 46.17 96.65C46.09 96.62 45.99 96.59 45.88 96.57C45.87 96.57 45.87 96.57 45.86 96.57C42.87 96.18 39.96 94.28 37.44 90.4C35.87 87.45 32.77 85.57 29.38 85.57Z" fill="#840725"/>
<path d="M91.83 63.18C91.26 63.18 90.68 63.12 90.12 63.01C89.1 62.8 88.13 62.42 87.24 61.85C85.99 61.13 84.81 60.24 83.67 59.39C81.65 57.87 79.75 56.44 77.72 56.04C77.28 55.95 76.81 55.91 76.32 55.91C74.73 55.91 73.07 56.36 71.31 56.83C69.42 57.34 67.46 57.87 65.48 57.87C64.81 57.87 64.19 57.81 63.58 57.69C58.9 56.75 55.86 52.18 56.8 47.5C57.46 44.21 60 41.58 63.26 40.8C63.33 40.78 63.39 40.76 63.46 40.74C67.44 40.22 70.92 37.71 73.81 33.25C73.83 33.22 73.85 33.18 73.87 33.15C75.38 30.35 78.29 28.61 81.47 28.61C82.04 28.61 82.62 28.67 83.18 28.78C86.75 29.5 89.5 32.4 90.03 36.01C90.05 36.11 90.07 36.21 90.1 36.3C90.97 40.8 93.14 44.69 96.09 47C96.14 47.04 96.19 47.07 96.25 47.11C96.56 47.29 96.85 47.49 97.11 47.7C97.15 47.73 97.37 47.88 97.38 47.88C97.43 47.95 97.49 48.01 97.55 48.06C99.85 50.1 100.9 53.23 100.3 56.23C99.49 60.26 95.93 63.18 91.83 63.18ZM103.65 43.5C103.27 43.5 102.9 43.44 102.55 43.32C99.63 42.29 98.65 37.19 100.41 32.19C101.95 27.84 105.12 24.69 107.96 24.69C108.34 24.69 108.71 24.75 109.06 24.87C111.98 25.9 112.96 31 111.2 36C109.67 40.34 106.5 43.5 103.65 43.5C103.66 43.5 103.65 43.5 103.65 43.5ZM63.47 40.73C63.49 40.73 63.51 40.72 63.53 40.72L63.45 40.73C63.46 40.73 63.46 40.73 63.47 40.73ZM57.48 34.28C54.39 34.1 52.02 29.48 52.32 24.19C52.61 18.98 55.34 14.74 58.4 14.74C58.46 14.74 58.52 14.74 58.58 14.74C61.68 14.92 64.04 19.54 63.74 24.83C63.44 30.04 60.71 34.28 57.66 34.28C57.66 34.28 57.54 34.28 57.48 34.28ZM94.9 25.18C94.52 25.18 94.15 25.12 93.8 25C90.88 23.97 89.9 18.87 91.66 13.87C93.2 9.51998 96.37 6.36998 99.21 6.36998C99.59 6.36998 99.96 6.42998 100.31 6.54998C103.23 7.57998 104.21 12.68 102.45 17.68C100.92 22.02 97.74 25.18 94.9 25.18ZM75.27 21.27C72.17 21.09 69.81 16.47 70.11 11.18C70.4 5.96998 73.13 1.72998 76.19 1.72998C76.25 1.72998 76.31 1.72998 76.37 1.72998C79.47 1.90998 81.83 6.52998 81.53 11.82C81.23 17.03 78.51 21.27 75.45 21.27C75.45 21.28 75.33 21.28 75.27 21.27Z" fill="#EF1F6A"/>
<path d="M76.2 3.23999C76.23 3.23999 76.26 3.23999 76.3 3.23999C78.29 3.34999 80.31 7.01999 80.05 11.75C79.79 16.35 77.41 19.78 75.46 19.78C75.43 19.78 75.4 19.78 75.36 19.78C73.37 19.67 71.35 16 71.61 11.27C71.87 6.66999 74.25 3.23999 76.2 3.23999ZM99.22 7.85999C99.43 7.85999 99.63 7.88999 99.82 7.95999C101.7 8.61999 102.62 12.7 101.04 17.17C99.6 21.24 96.79 23.68 94.9 23.68C94.69 23.68 94.49 23.65 94.3 23.58C92.42 22.92 91.5 18.83 93.08 14.37C94.52 10.29 97.33 7.85999 99.22 7.85999ZM58.4 16.24C58.43 16.24 58.46 16.24 58.5 16.24C60.49 16.35 62.51 20.02 62.25 24.75C61.99 29.35 59.61 32.78 57.66 32.78C57.63 32.78 57.6 32.78 57.57 32.78C55.58 32.67 53.56 29 53.82 24.27C54.08 19.67 56.45 16.24 58.4 16.24ZM107.97 26.18C108.18 26.18 108.38 26.21 108.57 26.28C110.45 26.94 111.37 31.03 109.79 35.49C108.35 39.56 105.54 42 103.65 42C103.44 42 103.24 41.97 103.05 41.9C101.17 41.24 100.25 37.15 101.83 32.69C103.27 28.62 106.08 26.18 107.97 26.18ZM81.46 30.11C81.93 30.11 82.41 30.16 82.88 30.25C85.83 30.84 88.1 33.24 88.54 36.22C88.56 36.37 88.6 36.52 88.64 36.67C89.59 41.48 91.95 45.66 95.16 48.17C95.26 48.25 95.36 48.32 95.47 48.38C95.72 48.53 95.96 48.69 96.18 48.87C96.24 48.91 96.29 48.96 96.35 49C96.36 49.01 96.37 49.01 96.38 49.02C96.43 49.08 96.49 49.13 96.55 49.18C98.45 50.87 99.32 53.46 98.83 55.94C98.16 59.27 95.22 61.69 91.83 61.69C91.36 61.69 90.88 61.64 90.41 61.55C89.57 61.38 88.77 61.06 88.03 60.59C88 60.57 87.97 60.55 87.93 60.53C86.81 59.88 85.67 59.03 84.56 58.2C82.4 56.58 80.37 55.05 78 54.57C77.47 54.46 76.9 54.41 76.31 54.41C74.52 54.41 72.77 54.88 70.91 55.39C69.11 55.88 67.25 56.38 65.47 56.38C64.9 56.38 64.37 56.33 63.86 56.23C59.99 55.45 57.48 51.68 58.25 47.81C58.79 45.09 60.89 42.92 63.6 42.27C63.67 42.25 63.73 42.24 63.79 42.22C66.83 41.79 71.18 40.02 75.01 34.15C75.07 34.06 75.12 33.97 75.17 33.88C76.43 31.55 78.84 30.11 81.46 30.11ZM76.2 0.23999C72.33 0.23999 68.96 5.01999 68.62 11.1C68.27 17.32 71.21 22.55 75.19 22.77C75.28 22.78 75.37 22.78 75.46 22.78C79.33 22.78 82.7 18 83.04 11.92C83.39 5.69999 80.45 0.46999 76.47 0.24999C76.37 0.23999 76.29 0.23999 76.2 0.23999ZM99.22 4.85999C95.81 4.85999 92.04 8.29999 90.25 13.36C88.18 19.24 89.54 25.07 93.3 26.4C93.82 26.58 94.35 26.67 94.9 26.67C98.31 26.67 102.08 23.23 103.87 18.16C105.94 12.29 104.58 6.44999 100.82 5.11999C100.3 4.94999 99.76 4.85999 99.22 4.85999ZM58.4 13.24C54.53 13.24 51.16 18.02 50.82 24.1C50.47 30.32 53.41 35.55 57.39 35.77C57.48 35.77 57.57 35.78 57.65 35.78C61.52 35.78 64.89 31 65.23 24.92C65.58 18.7 62.64 13.47 58.66 13.25C58.58 13.24 58.49 13.24 58.4 13.24ZM107.97 23.18C104.56 23.18 100.79 26.62 99 31.69C96.93 37.57 98.29 43.4 102.05 44.73C102.57 44.91 103.1 45 103.65 45C107.06 45 110.83 41.56 112.62 36.49C114.7 30.61 113.33 24.78 109.57 23.45C109.05 23.27 108.52 23.18 107.97 23.18ZM81.46 27.11C77.72 27.11 74.29 29.19 72.54 32.44C69.76 36.73 66.55 38.83 63.24 39.26C63.23 39.26 63.23 39.26 63.22 39.27C63.09 39.29 62.98 39.32 62.9 39.35C59.18 40.25 56.12 43.21 55.32 47.22C54.22 52.72 57.78 58.07 63.28 59.17C64.02 59.32 64.75 59.38 65.48 59.38C69.53 59.38 73.32 57.41 76.32 57.41C76.7 57.41 77.07 57.44 77.42 57.51C80.18 58.06 83.1 61.21 86.44 63.13C87.45 63.76 88.59 64.24 89.82 64.49C90.49 64.63 91.17 64.69 91.83 64.69C96.57 64.69 100.81 61.36 101.77 56.53C102.51 52.86 101.16 49.26 98.54 46.94C98.47 46.82 98.34 46.71 98.14 46.59C98.1 46.57 98.06 46.53 98.02 46.51C97.7 46.26 97.36 46.03 97.01 45.82C94.49 43.85 92.34 40.32 91.52 35.79H91.5C90.89 31.67 87.78 28.18 83.46 27.31C82.8 27.17 82.13 27.11 81.46 27.11Z" fill="#840725"/>
</svg>
